<?xml version="1.0" standalone="no"?>
<!DOCTYPE svg PUBLIC "-//W3C//DTD SVG 20010904//EN"
 "http://www.w3.org/TR/2001/REC-SVG-20010904/DTD/svg10.dtd">
<svg version="1.0" xmlns="http://www.w3.org/2000/svg"
 width="512.000000pt" height="512.000000pt" viewBox="0 0 512.000000 512.000000"
 preserveAspectRatio="xMidYMid meet">

<g transform="translate(0.000000,512.000000) scale(0.100000,-0.100000)"
fill="#000000" stroke="none">
<path d="M256 5100 c-158 -81 -184 -263 -80 -562 87 -250 293 -611 456 -801
39 -45 49 -63 44 -81 -6 -23 -10 -24 -108 -28 -89 -3 -108 -6 -136 -26 -41
-30 -72 -90 -72 -140 0 -36 30 -145 51 -184 9 -17 2 -18 -78 -18 -103 0 -140
-15 -187 -73 -27 -34 -31 -46 -30 -100 2 -186 164 -444 397 -631 75 -60 85
-72 82 -95 -3 -14 -9 -107 -15 -206 -37 -619 -148 -1412 -266 -1904 -19 -79
-34 -154 -34 -168 0 -13 11 -35 25 -48 l24 -25 2235 0 c1617 0 2242 3 2259 11
45 20 48 47 21 166 -51 222 -84 384 -119 588 -32 188 -38 212 -61 232 -14 13
-36 23 -50 23 -26 0 -74 -40 -74 -62 0 -31 74 -438 110 -607 22 -101 40 -188
40 -193 0 -4 -954 -8 -2120 -8 l-2120 0 5 23 c129 548 229 1247 276 1932 6 94
13 171 14 173 2 3 214 -104 221 -111 2 -2 19 -83 38 -180 97 -483 201 -778
299 -837 50 -31 84 -26 126 18 20 20 41 46 46 56 9 15 18 -1 59 -95 62 -146
196 -406 248 -484 55 -81 106 -134 147 -152 71 -30 161 13 221 106 19 28 34
51 36 51 1 0 19 -30 39 -66 73 -130 167 -228 263 -275 172 -84 352 -3 501 225
27 42 53 86 56 96 9 28 21 25 34 -8 27 -65 129 -141 190 -142 38 0 102 44 146
99 64 81 167 269 257 468 45 100 86 183 90 183 4 0 15 -14 23 -30 19 -36 70
-70 105 -70 87 0 163 135 255 450 35 121 90 369 120 542 l17 98 55 31 c30 17
57 29 60 26 3 -3 11 -90 19 -194 31 -430 80 -869 100 -901 20 -31 57 -44 89
-32 50 19 51 37 17 348 -32 291 -56 564 -67 772 l-6 115 57 40 c97 69 262 250
320 352 72 127 98 202 98 293 1 64 -3 80 -23 109 -36 50 -90 71 -190 71 -75 0
-82 2 -76 18 63 164 62 246 -7 308 -40 37 -65 44 -158 44 -88 0 -91 1 -100 26
-9 23 -5 32 39 80 179 195 417 634 493 906 32 116 33 284 1 343 -28 53 -69 94
-118 116 -62 29 -233 26 -350 -5 -200 -54 -444 -174 -745 -368 -11 -7 -43 9
-130 67 -206 138 -434 235 -685 292 -94 21 -143 26 -341 30 -243 6 -339 -2
-494 -38 -250 -57 -506 -173 -712 -320 l-57 -41 -107 67 c-207 130 -440 244
-614 301 -71 23 -106 28 -220 31 -120 3 -139 1 -174 -17z m244 -135 c189 -40
476 -169 687 -310 l63 -41 -35 -34 c-33 -32 -37 -33 -58 -20 -245 158 -533
290 -686 315 -52 9 -85 -6 -101 -45 -37 -89 139 -492 346 -793 30 -43 54 -86
53 -95 0 -9 -8 -35 -18 -56 l-17 -39 -52 70 c-91 123 -181 274 -262 438 -163
334 -200 565 -96 611 41 17 89 17 176 -1z m2331 -5 c594 -90 1102 -464 1364
-1005 57 -117 93 -217 140 -388 21 -76 44 -87 191 -87 l107 0 -6 -42 c-3 -24
-29 -88 -57 -144 -40 -78 -50 -106 -45 -127 13 -51 35 -57 198 -57 168 0 168
0 147 -78 -111 -406 -668 -768 -1420 -923 -197 -41 -390 -65 -681 -85 -102 -7
-129 -23 -129 -79 0 -25 7 -39 28 -55 25 -20 34 -21 137 -15 428 26 797 95
1130 213 77 27 148 53 158 57 23 10 23 5 -18 -192 -61 -296 -169 -641 -186
-597 -4 11 -8 69 -8 129 -1 121 -10 148 -57 159 -36 9 -72 -16 -94 -67 -10
-23 -54 -127 -98 -232 -148 -349 -272 -591 -343 -668 l-29 -32 -24 27 c-30 33
-60 112 -76 198 -15 77 -40 110 -85 110 -43 0 -58 -20 -104 -133 -75 -187
-190 -350 -275 -391 -146 -69 -299 79 -436 422 -33 84 -49 102 -93 102 -43 0
-66 -29 -81 -106 -27 -131 -77 -232 -109 -221 -44 14 -224 356 -367 697 -45
107 -91 214 -101 238 -21 50 -58 69 -100 52 -40 -17 -49 -49 -49 -175 0 -107
-8 -140 -25 -97 -34 88 -92 269 -116 367 -28 108 -79 347 -79 365 0 4 61 -12
137 -36 314 -102 623 -159 997 -184 177 -13 206 -7 226 39 13 33 0 75 -28 90
-11 6 -89 15 -173 21 -924 61 -1680 383 -1950 829 -39 65 -93 216 -85 237 4
11 38 14 154 14 136 0 152 2 176 21 37 29 33 59 -24 174 -28 55 -51 116 -53
135 l-2 35 122 5 c152 6 155 9 189 142 169 669 722 1188 1409 1323 180 35 419
41 596 15z m2017 -14 c111 -110 -94 -644 -405 -1055 l-33 -43 -20 47 c-11 25
-20 49 -20 51 0 3 39 64 88 137 183 276 342 647 318 741 -3 14 -18 33 -31 42
-22 14 -33 15 -88 4 -134 -26 -380 -135 -587 -260 l-103 -62 -34 35 -35 35 73
47 c95 62 292 165 408 215 161 68 289 101 380 96 52 -3 68 -8 89 -30z"/>
<path d="M1881 3404 c-17 -22 -21 -41 -21 -106 0 -70 3 -82 25 -103 13 -14 36
-25 50 -25 14 0 37 11 50 25 23 22 25 32 25 108 0 74 -3 86 -23 105 -33 31
-80 29 -106 -4z"/>
<path d="M3160 3412 c-41 -33 -40 -182 1 -223 25 -25 69 -24 97 1 19 18 22 31
22 110 0 77 -3 93 -20 110 -25 25 -71 26 -100 2z"/>
<path d="M2352 3311 c-52 -18 -95 -50 -113 -83 -21 -39 -29 -122 -18 -182 13
-74 39 -125 91 -182 37 -40 144 -104 175 -104 7 0 13 -9 13 -20 0 -28 -64 -67
-130 -80 -79 -16 -96 -25 -107 -57 -13 -35 -1 -67 31 -88 20 -13 37 -15 78
-10 62 9 141 38 176 66 22 17 27 17 41 5 50 -43 185 -83 241 -71 56 12 77 71
40 117 -14 19 -33 27 -71 32 -114 15 -198 94 -119 111 53 12 143 79 183 136
63 91 81 185 56 285 -15 60 -81 118 -150 133 -28 6 -121 11 -207 11 -125 -1
-168 -4 -210 -19z"/>
<path d="M1830 3080 c-11 -11 -20 -33 -20 -50 0 -54 28 -70 125 -70 97 0 125
16 125 70 0 54 -28 70 -125 70 -72 0 -88 -3 -105 -20z"/>
<path d="M3101 3074 c-12 -15 -21 -34 -21 -44 0 -10 9 -29 21 -44 19 -24 26
-26 104 -26 99 0 128 16 128 70 0 54 -29 70 -128 70 -78 0 -85 -2 -104 -26z"/>
</g>
</svg>
